# xmcd
#
# Track frame offsets: 
#        150
#        21534
#        43531
#        64762
#        83375
#        100647
#        119191
#        138488
#
# Disc length: 2093 seconds
#
# Revision: 2
# Processed by: cddbd v1.5.2PL0 Copyright (c) Steve Scherf et al.
# Submitted via: ExactAudioCopyFreeDBPlugin 1.0
#
DISCID=68082b08
DTITLE=Jr Tucker - Jr Tucker
DYEAR=1983
DGENRE=Funk
TTITLE0=I Was Made For Dancing
TTITLE1=Take A Message (From My Body)
TTITLE2=Bad Girls
TTITLE3=Too Young To Fall In Love
TTITLE4=If It's Love You're After
TTITLE5=Mr. Telephone Man
TTITLE6=Going Through School And Love
TTITLE7=Treat Me Right
EXTD=
EXTT0=
EXTT1=
EXTT2=
EXTT3=
EXTT4=
EXTT5=
EXTT6=
EXTT7=
PLAYORDER=
